<?xml version="1.0" standalone="no"?>
<!DOCTYPE svg PUBLIC "-//W3C//DTD SVG 1.0//EN" "http://www.w3.org/TR/2001/REC-SVG-20010904/DTD/svg10.dtd">
<svg xmlns="http://www.w3.org/2000/svg" xmlns:xlink="http://www.w3.org/1999/xlink" id="body_1" width="906" height="750">

<defs>
            <clipPath  id="1">

                <path clip-rule="evenodd" d="M0 0L680 0L680 563L0 563z" />            </clipPath>
</defs>

<g transform="matrix(1.3321493 0 0 1.3321493 0.06927436 -0)">
	<g>
        <path d="M506.9375 539.7578C 551.4453 574.2539 615.03516 568.4844 652.6094 526.53906C 690.1797 484.59766 688.96094 420.75 649.8086 380.27734L649.8086 380.27734L506.9375 539.7578z" stroke="none" fill="#F2F2F2" fill-rule="nonzero" />
        <path d="M244.46484 167.25781L111.828125 313.4922C 119.0625 329.22656 129.98438 342.98438 143.67188 353.59375L143.67188 353.59375L286.53906 194.11328C 274.8203 181.97656 260.40234 172.77734 244.46484 167.25781z" stroke="none" fill="#F2F2F2" fill-rule="nonzero" />
        <path d="M243.92969 167.33594L243.92969 81.82422L174.1289 81.82422L174.1289 167.07031C 196.78125 159.41016 221.33594 159.5039 243.92969 167.33594z" stroke="none" fill="#6C63FF" fill-rule="nonzero" />
        <path d="M174.1289 368.90625L174.1289 456.40625L243.92969 456.40625L243.92969 368.64062C 221.33594 376.47266 196.78125 376.5664 174.1289 368.90625z" stroke="none" fill="#6C63FF" fill-rule="nonzero" />
        <path d="M209.40234 375.70703C 150.01562 375.70703 101.69922 327.3828 101.69922 267.98828C 101.69922 208.58984 150.01562 160.26562 209.40234 160.26562C 268.79297 160.26562 317.10938 208.58984 317.10938 267.98828C 317.10938 327.3828 268.79297 375.70703 209.40234 375.70703zM209.40234 161.01953C 150.42578 161.01953 102.44922 209.0039 102.44922 267.98828C 102.44922 326.97266 150.42578 374.95703 209.40234 374.95703C 268.3828 374.95703 316.35938 326.97266 316.35938 267.98828C 316.35938 209.0039 268.3828 161.01953 209.40234 161.01953z" stroke="none" fill="#000000" fill-rule="nonzero" />
        <path d="M133.59766 267.98828C 133.59766 309.85938 167.53906 343.8047 209.40234 343.8047L209.40234 343.8047L209.40234 192.17188C 167.53906 192.17188 133.59766 226.11328 133.59766 267.98828z" stroke="none" fill="#575A89" fill-rule="nonzero" />
        <path d="M209.40234 192.17188L209.40234 343.8047C 251.26953 343.8047 285.21094 309.85938 285.21094 267.98828C 285.21094 226.11328 251.26953 192.17188 209.40234 192.17188z" stroke="none" fill="#6C63FF" fill-rule="nonzero" />
        <path d="M219.91016 271.7422C 219.91016 277.54688 215.21094 282.25 209.40234 282.25C 203.59766 282.25 198.89453 277.54688 198.89453 271.7422C 198.89453 265.9336 203.59766 261.23047 209.40234 261.23047C 215.21094 261.23047 219.91016 265.9336 219.91016 271.7422z" stroke="none" fill="#2F2E41" fill-rule="nonzero" />
        <path d="M209.38672 233.19922L212 253.97266L214.6211 274.7422L204.14844 274.7422L206.76562 253.97266L209.38672 233.19922z" stroke="none" fill="#2F2E41" fill-rule="nonzero" />
        <path d="M272.0586 272.33203L237.89453 273.60547L203.73828 274.8828L203.77344 268.91406L237.91406 270.6289L272.0586 272.33203z" stroke="none" fill="#2F2E41" fill-rule="nonzero" />
        <path d="M320.85938 276.9961C 319.125 276.9961 318.42188 275.80078 317.53516 274.29297C 317.3125 273.91016 317.07422 273.5 316.79297 273.07422L316.79297 273.07422L317.42578 272.66016C 317.70703 273.10938 317.95312 273.52344 318.1797 273.91016C 319.0664 275.41797 319.5547 276.2461 320.85938 276.2461C 325.20703 276.2461 328.7422 269.0039 328.7422 260.10547C 328.7422 251.21094 325.20703 243.96484 320.85938 243.96484C 318.35156 243.96484 316.60938 245.51562 315.20312 248.98828L315.20312 248.98828L314.51172 248.70703C 316.03906 244.91016 318 243.21484 320.85938 243.21484C 325.6211 243.21484 329.4922 250.79297 329.4922 260.10547C 329.4922 269.41797 325.6211 276.9961 320.85938 276.9961z" stroke="none" fill="#000000" fill-rule="nonzero" />
        <path d="M321.98828 532.22266C 321.98828 530.15234 276.28516 528.46875 219.91016 528.46875C 163.53906 528.46875 117.83594 530.15234 117.83594 532.22266C 117.83594 534.29297 163.53906 535.97656 219.91016 535.97656C 276.28516 535.97656 321.98828 534.29297 321.98828 532.22266z" stroke="none" fill="#F2F2F2" fill-rule="nonzero" />
        <path d="M596.6875 120.10547C 596.6875 128.8164 589.6328 135.8711 580.9258 135.8711C 572.21875 135.8711 565.16406 128.8164 565.16406 120.10547C 565.16406 111.39844 572.21875 104.34375 580.9258 104.34375C 589.6328 104.34375 596.6875 111.39844 596.6875 120.10547z" stroke="none" fill="#F2F2F2" fill-rule="nonzero" />
        <path d="M107.328125 0C 70.77344 0.0117188 36.742188 18.625 17.003906 49.390625C -2.738281 80.16406 -5.472656 118.86328 9.75 152.09766L9.75 152.09766L142.38672 5.863281C 131.10547 1.96875 119.26172 -0.0117188 107.328125 0z" stroke="none" fill="#F2F2F2" fill-rule="nonzero" />
        <path d="M487.39062 176.0039C 487.39062 188.94922 476.89453 199.44922 463.9414 199.44922C 450.9922 199.44922 440.4961 188.94922 440.4961 176.0039C 440.4961 163.04688 450.9922 152.55078 463.9414 152.55078C 476.89453 152.55078 487.39062 163.04688 487.39062 176.0039z" stroke="none" fill="#2F2E41" fill-rule="nonzero" />
        <path d="M424.5 322.9961C 424.5 322.9961 443.21875 370.29688 445.1875 370.29688C 447.16016 370.29688 450.11328 352.5625 450.11328 352.5625L450.11328 352.5625L438.29297 319.0586L424.5 322.9961z" stroke="none" fill="#FFB9B9" fill-rule="nonzero" />
        <path d="M452.08594 193.91797C 452.08594 193.91797 457.01172 214.60938 455.03906 218.55078C 453.0703 222.4961 458.98047 228.40625 458.98047 228.40625L458.98047 228.40625L472.77734 228.40625L482.6289 212.63672L484.59766 205.74219C 484.59766 205.74219 478.6875 189.97656 479.67188 188.00781C 480.65625 186.03516 452.08594 193.91797 452.08594 193.91797z" stroke="none" fill="#FFB9B9" fill-rule="nonzero" />
		<g clip-path="url(#1)" >
            <path d="M452.08594 193.91797C 452.08594 193.91797 457.01172 214.60938 455.03906 218.55078C 453.0703 222.4961 458.98047 228.40625 458.98047 228.40625L458.98047 228.40625L472.77734 228.40625L482.6289 212.63672L484.59766 205.74219C 484.59766 205.74219 478.6875 189.97656 479.67188 188.00781C 480.65625 186.03516 452.08594 193.91797 452.08594 193.91797z" stroke="none" fill="#000000" fill-rule="nonzero" />
		</g>
        <path d="M507.2539 528.9375L507.2539 539.77734L520.0625 542.73047L521.0469 528.9375L507.2539 528.9375z" stroke="none" fill="#575A89" fill-rule="nonzero" />
        <path d="M455.03906 334.8203C 455.03906 334.8203 441.25 359.45703 446.17188 372.26562C 451.09766 385.07422 469.8164 448.13672 469.8164 448.13672C 469.8164 448.13672 480.65625 483.60938 480.65625 485.58203C 480.65625 487.55078 489.52344 530.91016 492.48047 531.89453C 495.4336 532.8789 522.03125 535.83594 523.0156 532.8789C 524.0039 529.9219 524.9883 514.16016 522.03125 511.20312C 519.0781 508.2422 503.3164 416.60938 503.3164 416.60938L503.3164 416.60938L501.34375 386.0586L525.97266 461.9375C 525.97266 461.9375 532.875 507.2578 535.8281 510.21875C 538.78516 513.1758 529.91797 516.1289 532.875 519.08594C 535.8281 522.04297 546.66406 529.9219 545.6797 532.8789C 544.6953 535.83594 569.3242 535.83594 572.27734 533.8633C 575.2344 531.89453 574.25 501.34375 574.25 501.34375L574.25 501.34375L560.45703 459.96484L544.6953 359.45703C 544.6953 359.45703 539.76953 329.89453 535.8281 329.89453C 531.8906 329.89453 455.03906 334.8203 455.03906 334.8203z" stroke="none" fill="#2F2E41" fill-rule="nonzero" />
        <path d="M510.21094 535.83594C 510.21094 535.83594 502.33203 528.9375 498.39062 530.91016C 494.44922 532.8789 481.64453 551.59766 477.70312 550.6133C 473.76172 549.6289 467.84766 561.21875 477.70312 562.2031C 487.5547 563.1875 503.3164 561.21875 503.3164 561.21875C 506.57422 561.7617 509.86328 562.08984 513.16797 562.2031C 517.10547 562.2031 525.97266 563.1875 525.97266 562.2031C 525.97266 561.21875 524.0039 538.78906 523.0156 538.78906C 522.03125 538.78906 511.1953 538.78906 510.21094 535.83594z" stroke="none" fill="#2F2E41" fill-rule="nonzero" />
        <path d="M564.39844 528.9375C 564.39844 528.9375 554.5469 526.96875 553.5625 528.9375C 552.5781 530.91016 548.6367 536.8203 548.6367 537.8047C 548.6367 538.78906 550.60547 550.6133 550.60547 551.59766C 550.60547 552.58594 552.5781 555.53906 554.5469 557.5117C 555.6914 558.47656 556.08203 560.0664 555.53125 561.4531C 555.53125 561.4531 581.14453 564.40625 581.14453 560.46484C 581.14453 556.52734 578.1875 547.66016 576.21875 545.6875C 574.25 543.71875 570.3086 529.9219 564.39844 528.9375z" stroke="none" fill="#2F2E41" fill-rule="nonzero" />
        <path d="M484.59766 182.09375C 484.59766 193.51953 475.33203 202.78516 463.90625 202.78516C 452.48438 202.78516 443.21875 193.51953 443.21875 182.09375C 443.21875 170.66406 452.48438 161.39844 463.90625 161.39844C 475.33203 161.39844 484.59766 170.66406 484.59766 182.09375z" stroke="none" fill="#FFB9B9" fill-rule="nonzero" />
        <path d="M456.02344 219.53516C 456.02344 219.53516 467.84766 226.4375 474.7461 215.59375C 481.64453 204.75781 503.3164 237.27344 503.3164 237.27344L503.3164 237.27344L509.22656 337.78125C 509.22656 337.78125 498.39062 338.76953 479.67188 343.6953C 460.94922 348.6211 452.08594 336.79688 452.08594 336.79688L452.08594 336.79688L451.09766 279.64844L453.0703 253.03906L450.11328 231.36328L452.08594 218.55078L456.02344 219.53516z" stroke="none" fill="#6C63FF" fill-rule="nonzero" />
        <path d="M434.35156 232.34766C 434.35156 232.34766 426.47266 234.32031 424.5 248.11328C 422.53125 261.90625 418.58984 303.29297 418.58984 303.29297L418.58984 303.29297L423.51562 327.92578C 423.51562 327.92578 437.3086 317.08594 442.23438 322.01172L442.23438 322.01172L439.27734 307.23438L442.23438 298.3672L433.3672 259.9375L434.35156 232.34766z" stroke="none" fill="#6C63FF" fill-rule="nonzero" />
        <path d="M453.94922 202.78516C 453.94922 202.78516 452.08594 202.78516 452.08594 209.6836C 452.08594 216.57812 433.3672 226.4375 433.3672 226.4375C 433.3672 226.4375 431.39844 229.39453 431.39844 237.27344C 431.39844 245.15625 431.39844 263.875 433.3672 269.78906C 435.33594 275.69922 438.29297 295.41016 439.27734 297.3828C 440.26172 299.35156 440.26172 308.21875 438.29297 310.1914C 436.32422 312.16016 443.21875 323.98438 445.1875 324.96875C 447.16016 325.95312 438.29297 351.57422 443.21875 352.5625C 448.14453 353.54688 457.01172 340.73828 459.96484 333.83594C 462.92188 326.9375 460.94922 231.36328 459.96484 224.46875C 458.98047 217.5625 453.94922 202.78516 453.94922 202.78516z" stroke="none" fill="#575A89" fill-rule="nonzero" />
        <path d="M481.39062 196.44531C 481.39062 196.44531 480.65625 191.94922 485.58203 195.89062C 490.5078 199.82812 491.4961 202.78516 491.4961 202.78516C 491.4961 202.78516 517.10547 202.78516 518.09375 205.74219C 519.0781 208.69531 517.5039 233.85547 517.5039 233.85547L517.5039 233.85547L530.4531 282C 530.4531 282 548.6367 337.78125 550.60547 339.7539C 552.5781 341.72266 534.84375 330.8789 524.9883 338.76953C 515.1367 346.64844 497.40625 350.58984 495.4336 345.66406C 493.46484 340.73828 471.79297 226.4375 471.79297 226.4375C 471.79297 226.4375 471.79297 207.71094 474.7461 205.74219C 477.70312 203.76953 481.39062 196.44531 481.39062 196.44531z" stroke="none" fill="#575A89" fill-rule="nonzero" />
        <path d="M533.8594 289.5L529.91797 334.8203L528.9336 338.76953L543.71094 358.47266C 543.71094 358.47266 546.66406 347.63672 545.6797 343.6953C 544.6953 339.7539 550.60547 295.41016 550.60547 295.41016L550.60547 295.41016L533.8594 289.5z" stroke="none" fill="#FFB9B9" fill-rule="nonzero" />
        <path d="M447.71094 167.38672C 447.71094 167.38672 442.91797 154.9375 449.86328 150.86719L449.86328 150.86719L451.78125 156.375C 451.78125 156.375 469.2461 145.83984 473.79688 148.23438L473.79688 148.23438L469.48828 153.98047C 469.48828 153.98047 489.83594 153.98047 491.26562 161.8789L491.26562 161.8789L484.08984 162.1211C 484.08984 162.1211 491.7461 167.14844 491.98828 175.28516L491.98828 175.28516L476.67188 176.24219L484.08984 180.55469C 484.08984 180.55469 456.32422 184.38281 449.6211 173.36719L449.6211 173.36719L447.71094 167.38672z" stroke="none" fill="#2F2E41" fill-rule="nonzero" />
        <path d="M443.5625 167.8789C 443.5625 167.8789 449.08203 178.91016 456.4336 176.15625C 463.78906 173.39062 456.4336 163.28125 456.4336 163.28125L456.4336 163.28125L451.53125 160.82422L443.5625 167.8789z" stroke="none" fill="#2F2E41" fill-rule="nonzero" />
        <path d="M406.04688 561.875L620.70703 561.875L620.70703 562.625L406.04688 562.625L406.04688 561.875z" stroke="none" fill="#000000" fill-rule="nonzero" />
        <path d="M516.1211 207.71094C 516.1211 207.71094 522.03125 208.69531 525.97266 215.59375C 529.91797 222.4961 549.6211 267.8164 550.60547 269.78906C 551.58984 271.7578 551.58984 298.3672 551.58984 298.3672C 551.58984 298.3672 537.8008 290.48438 531.8906 295.41016L531.8906 295.41016L530.90234 283.58594L518.09375 238.26172L516.1211 223.48047L516.1211 207.71094z" stroke="none" fill="#6C63FF" fill-rule="nonzero" />
	</g>
</g>
</svg>